<?xml version="1.0" encoding="utf-8"?>
<!-- Generator: Adobe Illustrator 22.1.0, SVG Export Plug-In . SVG Version: 6.00 Build 0)  -->
<svg version="1.1"
	 id="Capa_1" inkscape:version="0.92.4 (5da689c313, 2019-01-14)" sodipodi:docname="cards.svg" xmlns:cc="http://creativecommons.org/ns#" xmlns:dc="http://purl.org/dc/elements/1.1/" xmlns:inkscape="http://www.inkscape.org/namespaces/inkscape" xmlns:rdf="http://www.w3.org/1999/02/22-rdf-syntax-ns#" xmlns:sodipodi="http://sodipodi.sourceforge.net/DTD/sodipodi-0.dtd" xmlns:svg="http://www.w3.org/2000/svg"
	 xmlns="http://www.w3.org/2000/svg" xmlns:xlink="http://www.w3.org/1999/xlink" x="0px" y="0px" viewBox="0 0 296.7 296.7"
	 style="enable-background:new 0 0 296.7 296.7;" xml:space="preserve">
<style type="text/css">
	.st0{fill:none;}
	.st1{fill:#FCFAFA;}
</style>
<sodipodi:namedview  bordercolor="#666666" borderopacity="1" gridtolerance="10" guidetolerance="10" id="namedview43" inkscape:current-layer="Capa_1" inkscape:cx="148.332" inkscape:cy="148.332" inkscape:pageopacity="0" inkscape:pageshadow="2" inkscape:window-height="1025" inkscape:window-maximized="1" inkscape:window-width="1920" inkscape:window-x="0" inkscape:window-y="27" inkscape:zoom="0.79551276" objecttolerance="10" pagecolor="#ffffff" showgrid="false">
	</sodipodi:namedview>
<polyline id="polyline4" class="st0" points="122.7,29 122.7,29.2 122.7,29.2 "/>
<path id="path8" inkscape:connector-curvature="0" sodipodi:nodetypes="ccsscccsccc" d="M129.9,50.1l-108-0.8
	c-2.1,0-4.2,0.3-6.1,0.9c-8,2.5-13.9,10.1-14,18.9L0.6,226.5c-0.1,11,8.9,20.1,19.9,20.1l108,0.8c2.1,0,4.2-0.3,6.1-0.9
	c8-2.5,13.9-10.1,14-18.9l1.1-157.3C149.9,59.2,140.9,50.1,129.9,50.1z"/>
<path id="path8_1_" inkscape:connector-curvature="0" sodipodi:nodetypes="ccsscccsccc" d="M277.6,50.1l-108-0.8
	c-2.1,0-4.2,0.3-6.1,0.9c-8,2.5-13.9,10.1-14,18.9l-1.1,157.3c-0.1,11,8.9,20.1,19.9,20.1l108,0.8c2.1,0,4.2-0.3,6.1-0.9
	c8-2.5,13.9-10.1,14-18.9l1.1-157.3C297.6,59.2,288.6,50.1,277.6,50.1z"/>
<path id="path8_2_" inkscape:connector-curvature="0" sodipodi:nodetypes="ccsscccsccc" d="M277.6,50.1l-108-0.8
	c-2.1,0-4.2,0.3-6.1,0.9c-8,2.5-13.9,10.1-14,18.9l-1.1,157.3c-0.1,11,8.9,20.1,19.9,20.1l108,0.8c2.1,0,4.2-0.3,6.1-0.9
	c8-2.5,13.9-10.1,14-18.9l1.1-157.3C297.6,59.2,288.6,50.1,277.6,50.1z"/>
<g id="g12">
</g>
<g id="g14">
</g>
<g id="g16">
</g>
<g id="g18">
</g>
<g id="g20">
</g>
<g id="g22">
</g>
<g id="g24">
</g>
<g id="g26">
</g>
<g id="g28">
</g>
<g id="g30">
</g>
<g id="g32">
</g>
<g id="g34">
</g>
<g id="g36">
</g>
<g id="g38">
</g>
<g id="g40">
</g>
<path class="st1" d="M249,161H50c-6.6,0-12-5.4-12-12v-8c0-6.6,5.4-12,12-12h199c6.6,0,12,5.4,12,12v8C261,155.6,255.6,161,249,161z
	"/>
<path class="st1" d="M238.3,161.9l-41.7-41.7c-4.7-4.7-4.7-12.3,0-17l7.1-7.1c4.7-4.7,12.3-4.7,17,0l41.7,41.7
	c4.7,4.7,4.7,12.3,0,17l-7.1,7.1C250.6,166.5,243,166.5,238.3,161.9z"/>
<path class="st1" d="M262.4,156.5l-41.7,41.7c-4.7,4.7-12.3,4.7-17,0l-7.1-7.1c-4.7-4.7-4.7-12.3,0-17l41.7-41.7
	c4.7-4.7,12.3-4.7,17,0l7.1,7.1C267,144.2,267,151.9,262.4,156.5z"/>
</svg>
