<svg xmlns="http://www.w3.org/2000/svg" viewBox="0 0 532.56 408.01">
    <title>Fichier 1</title>
    <g id="Calque_2" data-name="Calque 2">
        <g id="Calque_1-2" data-name="Calque 1">
            <path d="M523.6,137.76a17.4,17.4,0,0,0-7.29-17.36L384.15,9.52C376.87,3.36,365.67,0,353.92,0a71.12,71.12,0,0,0-19,2.8L27.44,110.88C16.8,114.8,10.08,121,9,128.8c-1.12,6.16,1.68,12.88,7.28,17.36L148.4,257c7.28,6.16,18.48,9.52,30.24,9.52a71.12,71.12,0,0,0,19-2.8L505.12,156.24c10.08-3.92,17.35-10.64,18.48-18.48m9,26.32v-11.2c-5,7.28-12.32,12.88-22.4,16.8L202.72,277.76c-7.28,2.8-15.68,3.92-24.08,3.92-15.68,0-30.24-4.48-39.76-12.88L6.72,157.92A27.26,27.26,0,0,1,0,150.64v10.09c0,4.48,2.24,9.51,7.28,13.44L139.44,285.05c14,11.76,42.56,15.12,64.4,7.28L511.28,184.81c13.44-4.49,20.72-12.33,21.28-20.73m0,29.12V175.84c-.56,7.84-7.84,16.24-21.28,20.72L203.84,304.08c-21.84,7.84-50.4,4.48-64.4-7.28L7.84,185.92c-5-4.48-7.28-9-7.28-13.44v17.36c0,4.48,2.23,9.52,7.28,13.44L140,314.16c14,11.77,42.56,15.13,64.4,7.29L511.84,213.93c12.87-4.49,20.71-12.89,20.71-20.73m0,28.56V203.84c0,8.4-7.84,16.24-21.28,20.72L203.83,333.2c-21.84,7.84-50.39,4.48-64.39-7.28L7.84,215c-5-4.48-7.29-9-7.29-13.44V219c0,4.48,2.24,9.52,7.29,13.44L140,343.28c14,11.76,42.55,15.12,64.39,7.28L511.83,243c13.44-5,20.72-12.88,20.72-21.28m0,29.12V233c0,8.4-7.84,16.24-21.28,21.28L203.83,361.76c-21.84,7.84-50.4,4.48-64.4-7.28L7.83,243.6c-5-3.92-7.28-9-7.28-13.44v17.36C.55,252,2.79,257,7.83,261L140,371.85c14,11.76,42.56,15.12,64.4,7.28L511.27,271.61c14-4.48,21.28-12.32,21.28-20.73m0,24.09V262.09c0,8.39-7.28,16.23-21.28,21.28L203.83,390.89c-21.84,7.84-50.4,4.48-64.4-7.28L7.83,272.73c-5-4.48-7.28-9-7.28-13.44v12.88c0,4.48,2.24,9.52,7.28,13.44L140,396.49c14,11.76,42.56,15.12,64.4,7.28L511.83,296.25c13.44-5,20.72-13.44,20.72-21.28"/>
        </g>
    </g>
</svg>